<?xml version="1.0" encoding="UTF-8" standalone="no"?>
<svg
   width="16"
   height="16"
   fill="currentColor"
   class="bi bi-subtract"
   viewBox="0 0 16 16"
   version="1.1"
   id="svg1"
   sodipodi:docname="ad-vector-map.svg"
   inkscape:version="1.3.2 (091e20e, 2023-11-25, custom)"
   inkscape:export-filename="icons\add-vector-map.png"
   inkscape:export-xdpi="192"
   inkscape:export-ydpi="192"
   xmlns:inkscape="http://www.inkscape.org/namespaces/inkscape"
   xmlns:sodipodi="http://sodipodi.sourceforge.net/DTD/sodipodi-0.dtd"
   xmlns="http://www.w3.org/2000/svg"
   xmlns:svg="http://www.w3.org/2000/svg">
  <defs
     id="defs1" />
  <sodipodi:namedview
     id="namedview1"
     pagecolor="#ffffff"
     bordercolor="#000000"
     borderopacity="0.25"
     inkscape:showpageshadow="2"
     inkscape:pageopacity="0.0"
     inkscape:pagecheckerboard="0"
     inkscape:deskcolor="#d1d1d1"
     inkscape:zoom="28.080903"
     inkscape:cx="0.60539363"
     inkscape:cy="7.8879229"
     inkscape:window-width="1920"
     inkscape:window-height="1009"
     inkscape:window-x="-8"
     inkscape:window-y="-8"
     inkscape:window-maximized="1"
     inkscape:current-layer="svg1" />
  <path
     d="M0 2a2 2 0 0 1 2-2h8a2 2 0 0 1 2 2v2h2a2 2 0 0 1 2 2v8a2 2 0 0 1-2 2H6a2 2 0 0 1-2-2v-2H2a2 2 0 0 1-2-2zm2-1a1 1 0 0 0-1 1v8a1 1 0 0 0 1 1h8a1 1 0 0 0 1-1V2a1 1 0 0 0-1-1z"
     id="path1"
     style="fill:#c23a2c" />
  <g
     id="g1"
     transform="matrix(0.86805559,0,0,-0.89285709,-0.32293894,13.821428)"
     style="fill:#2481bc">
    <path
       fill-rule="evenodd"
       d="m 2.0000254,11.5 a 1.5,1.5 0 0 1 1.5,-1.5 h 1 a 1.5,1.5 0 0 1 1.5,1.5 v 1 a 1.5,1.5 0 0 1 -1.5,1.5 h -1 a 1.5,1.5 0 0 1 -1.5,-1.5 z m 1.5,-0.5 a 0.5,0.5 0 0 0 -0.5,0.5 v 1 a 0.5,0.5 0 0 0 0.5,0.5 h 1 a 0.5,0.5 0 0 0 0.5,-0.5 v -1 a 0.5,0.5 0 0 0 -0.5,-0.5 z m 10.4999996,0.5 a 1.5,1.5 0 0 1 1.5,-1.5 h 1 a 1.5,1.5 0 0 1 1.5,1.5 v 1 a 1.5,1.5 0 0 1 -1.5,1.5 h -1 a 1.5,1.5 0 0 1 -1.5,-1.5 z m 1.5,-0.5 a 0.5,0.5 0 0 0 -0.5,0.5 v 1 a 0.5,0.5 0 0 0 0.5,0.5 h 1 a 0.5,0.5 0 0 0 0.5,-0.5 v -1 a 0.5,0.5 0 0 0 -0.5,-0.5 z M 8.0000254,5.5 a 1.5,1.5 0 0 1 1.5,-1.5 h 0.9999996 a 1.5,1.5 0 0 1 1.5,1.5 v 1 a 1.5,1.5 0 0 1 -1.5,1.5 H 9.5000254 a 1.5,1.5 0 0 1 -1.5,-1.5 z m 1.5,-0.5 a 0.5,0.5 0 0 0 -0.5,0.5 v 1 a 0.5,0.5 0 0 0 0.5,0.5 h 0.9999996 a 0.5,0.5 0 0 0 0.5,-0.5 v -1 a 0.5,0.5 0 0 0 -0.5,-0.5 z"
       id="path1-1"
       style="fill:#2481bc" />
    <path
       d="m 8.0000254,5.5 h -4.134 a 1,1 0 1 0 0,1 h 2.668 a 6.52,6.52 0 0 0 -2.72,3.5 h 0.686 q 0.186,0 0.358,0.043 a 5.52,5.52 0 0 1 3.185,-3.185 1.5,1.5 0 0 1 -0.043,-0.358 z m 3.9569996,1.358 a 1.5,1.5 0 0 0 0.043,-0.358 v -1 h 4.134 a 1,1 0 1 1 0,1 h -2.668 a 6.52,6.52 0 0 1 2.72,3.5 h -0.686 q -0.185,0 -0.358,0.043 a 5.52,5.52 0 0 0 -3.185,-3.185"
       id="path2"
       style="fill:#2481bc" />
  </g>
  <path
     d="m 15.783518,12.952804 a 2.8690027,2.8690027 0 1 1 -5.738005,0 2.8690027,2.8690027 0 0 1 5.738005,0 m -2.68969,-1.255189 a 0.17931336,0.17931336 0 0 0 -0.358626,0 v 1.075876 h -1.075876 a 0.17931296,0.17931296 0 0 0 0,0.358625 h 1.075876 v 1.075876 a 0.17931336,0.17931336 0 0 0 0.358626,0 v -1.075876 h 1.075876 a 0.17931296,0.17931296 0 0 0 0,-0.358625 h -1.075876 z"
     id="path1-6"
     style="fill:#eef3f6;stroke-width:0.358624" />
</svg>
