<?xml version="1.0" encoding="UTF-8" standalone="no"?>
<svg
   width="16"
   height="16"
   fill="currentColor"
   class="bi bi-pie-chart-fill"
   viewBox="0 0 16 16"
   version="1.1"
   id="svg1"
   sodipodi:docname="calc-sf.svg"
   inkscape:version="1.3.2 (091e20e, 2023-11-25, custom)"
   xmlns:inkscape="http://www.inkscape.org/namespaces/inkscape"
   xmlns:sodipodi="http://sodipodi.sourceforge.net/DTD/sodipodi-0.dtd"
   xmlns="http://www.w3.org/2000/svg"
   xmlns:svg="http://www.w3.org/2000/svg">
  <defs
     id="defs1" />
  <sodipodi:namedview
     id="namedview1"
     pagecolor="#ffffff"
     bordercolor="#000000"
     borderopacity="0.25"
     inkscape:showpageshadow="2"
     inkscape:pageopacity="0.0"
     inkscape:pagecheckerboard="0"
     inkscape:deskcolor="#d1d1d1"
     inkscape:zoom="25.919883"
     inkscape:cx="10.918259"
     inkscape:cy="4.1088148"
     inkscape:window-width="1920"
     inkscape:window-height="1009"
     inkscape:window-x="2552"
     inkscape:window-y="350"
     inkscape:window-maximized="1"
     inkscape:current-layer="svg1" />
  <rect
     style="fill:#bdc2c8;stroke:none;stroke-width:1.10555"
     id="rect2"
     width="2.5"
     height="2.5"
     x="1"
     y="1" />
  <rect
     style="fill:#93a5a5;stroke:none;stroke-width:2.21109"
     id="rect3"
     width="5"
     height="5"
     x="6"
     y="6" />
  <rect
     style="fill:#bdc2c8;stroke:none;stroke-width:1.10555"
     id="rect4"
     width="2.5"
     height="2.5"
     x="3.5"
     y="3.5" />
  <rect
     style="fill:#93a5a5;stroke:none;stroke-width:1.10555"
     id="rect5"
     width="2.5"
     height="2.5"
     x="6"
     y="1" />
  <rect
     style="fill:#808e8e;stroke:none;stroke-width:1.10555"
     id="rect6"
     width="2.5"
     height="2.5"
     x="1"
     y="8.5" />
  <path
     d="M 0,2 C 0,0.8954305 0.89543,0 2.0000001,0 H 10 c 1.104569,0 2,0.8954305 2,2 v 2 c 0,0 0,4.0902039 0,6 0,1.000001 -0.895431,2 -2,2 h -5.9999999 -2 C 0.89543,12 0,11.104569 0,10 Z M 2.0000001,1 C 1.4477151,1 1,1.4477153 1,2 v 8 c 0,0.552285 0.4477151,1 1.0000001,1 H 10 c 0.552285,0 1,-0.447715 1,-1 V 2 C 11,1.4477153 10.552285,1 10,1 Z"
     id="path1-6"
     style="fill:#2481bc"
     sodipodi:nodetypes="ssssccscssssssssssss" />
  <path
     d="M 16,8.4867016 H 8.222 l -5.5,5.5000004 c 4.9905671,4.402861 12.861845,1.142183 13.277,-5.5000004 z m -7.485,-8.485 v 0"
     id="path1"
     sodipodi:nodetypes="ccccccc"
     style="fill:#d45729" />
</svg>
