<?xml version="1.0" encoding="UTF-8" standalone="no"?>
<svg
   viewBox="0 0 16 16"
   class="bi bi-eyeglasses"
   fill="currentColor"
   version="1.1"
   id="svg6"
   sodipodi:docname="infiltration.svg"
   inkscape:version="1.3.2 (091e20e, 2023-11-25, custom)"
   xmlns:inkscape="http://www.inkscape.org/namespaces/inkscape"
   xmlns:sodipodi="http://sodipodi.sourceforge.net/DTD/sodipodi-0.dtd"
   xmlns="http://www.w3.org/2000/svg"
   xmlns:svg="http://www.w3.org/2000/svg"
   xmlns:rdf="http://www.w3.org/1999/02/22-rdf-syntax-ns#"
   xmlns:cc="http://creativecommons.org/ns#"
   xmlns:dc="http://purl.org/dc/elements/1.1/">
  <metadata
     id="metadata12">
    <rdf:RDF>
      <cc:Work
         rdf:about="">
        <dc:format>image/svg+xml</dc:format>
        <dc:type
           rdf:resource="http://purl.org/dc/dcmitype/StillImage" />
      </cc:Work>
    </rdf:RDF>
  </metadata>
  <defs
     id="defs10" />
  <sodipodi:namedview
     pagecolor="#ffffff"
     bordercolor="#666666"
     borderopacity="1"
     objecttolerance="10"
     gridtolerance="10"
     guidetolerance="10"
     inkscape:pageopacity="0"
     inkscape:pageshadow="2"
     inkscape:window-width="2560"
     inkscape:window-height="1369"
     id="namedview8"
     showgrid="false"
     inkscape:snap-bbox="true"
     inkscape:snap-page="true"
     inkscape:snap-global="true"
     inkscape:zoom="20.85965"
     inkscape:cx="15.580319"
     inkscape:cy="7.9819172"
     inkscape:window-x="-8"
     inkscape:window-y="-8"
     inkscape:window-maximized="1"
     inkscape:current-layer="svg6"
     inkscape:showpageshadow="2"
     inkscape:pagecheckerboard="0"
     inkscape:deskcolor="#d1d1d1" />
  <rect
     style="fill:#bdc2c8;stroke:none;stroke-width:1.10555"
     id="rect2"
     width="2.5"
     height="2.5"
     x="1"
     y="1" />
  <rect
     style="fill:#93a5a5;stroke:none;stroke-width:2.21109"
     id="rect3"
     width="5"
     height="5"
     x="6"
     y="6" />
  <rect
     style="fill:#bdc2c8;stroke:none;stroke-width:1.10555"
     id="rect4"
     width="2.5"
     height="2.5"
     x="3.5"
     y="3.5" />
  <rect
     style="fill:#93a5a5;stroke:none;stroke-width:1.10555"
     id="rect5"
     width="2.5"
     height="2.5"
     x="6"
     y="1" />
  <rect
     style="fill:#808e8e;stroke:none;stroke-width:1.10555"
     id="rect6"
     width="2.5"
     height="2.5"
     x="1"
     y="8.5" />
  <path
     d="M 0,2 C 0,0.8954305 0.89543,0 2,0 h 8 c 1.104569,0 2,0.8954305 2,2 v 2 c 0,0 0,4.0902039 0,5.9999997 C 12,11.000001 11.104569,12 10,12 H 4 2 C 0.89543,12 0,11.104569 0,9.9999997 Z M 2,1 C 1.447715,1 1,1.4477153 1,2 V 9.9999997 C 1,10.552285 1.447715,11 2,11 h 8 c 0.552285,0 1,-0.447715 1,-1.0000003 V 2 C 11,1.4477153 10.552285,1 10,1 Z"
     id="path1"
     style="fill:#e84c3d"
     sodipodi:nodetypes="ssssccscssssssssssss" />
  <g
     id="g1"
     style="fill:#2481bc">
    <path
       d="m 13.694671,11.958781 a 0.5,0.25985663 0 0 0 0,-0.519713 h -3.248 l 3.636,-3.257043 c 0.312,-0.2806452 -0.066,-0.6408065 -0.696,-0.6408065 h -7.384 c -0.63,0 -1.01,0.3596416 -0.697,0.6408065 l 3.636,3.257043 h -3.247 a 0.5,0.25985663 0 0 0 0,0.519713 z"
       id="path1-9"
       style="stroke-width:0.720911;fill:#2481bc" />
    <path
       fill-rule="evenodd"
       d="m 3.694282,11.663083 c 0,-0.143516 0.223858,-0.259857 0.5,-0.259857 h 11 c 0.666666,0 0.666666,0.519712 0,0.519712 h -11 c -0.276142,0 -0.5,-0.116341 -0.5,-0.259855 m 2,1.039426 c 0,-0.143515 0.223858,-0.259856 0.5,-0.259856 h 7 c 0.666666,0 0.666666,0.519713 0,0.519713 h -7 c -0.276142,0 -0.5,-0.116342 -0.5,-0.259857 m 1.5,1.039427 c 0,-0.143515 0.223858,-0.259857 0.5,-0.259857 h 4 c 0.666666,0 0.666666,0.519713 0,0.519713 h -4 c -0.276142,0 -0.5,-0.116342 -0.5,-0.259856 m 1,1.039426 c 0,-0.143514 0.223858,-0.259856 0.5,-0.259856 h 2 c 0.666666,0 0.666666,0.519713 0,0.519713 h -2 c -0.276142,0 -0.5,-0.116342 -0.5,-0.259857 m 0,-6.2365593 v 0"
       id="path1-1"
       sodipodi:nodetypes="cssssccssssccssssccssssccc"
       style="stroke-width:0.720911;fill:#2481bc" />
  </g>
</svg>
